<svg id="Layer_1" data-name="Layer 1" xmlns="http://www.w3.org/2000/svg" viewBox="0 0 122.88 96"><title>volume-mute</title><path fill="#fff" d="M12.81,22.46H38.34L59.46,1.18a4,4,0,0,1,5.66,0A3.91,3.91,0,0,1,66.31,4h0V92a4,4,0,0,1-6.9,2.81l-20.87-17H12.81A12.84,12.84,0,0,1,0,65V35.27A12.84,12.84,0,0,1,12.81,22.46Zm100.62,8.09a5.48,5.48,0,0,1,7.82,0,5.62,5.62,0,0,1,0,7.89L111.83,48l9.45,9.59a5.57,5.57,0,0,1-.06,7.85,5.49,5.49,0,0,1-7.79,0L104,55.9l-9.4,9.55a5.5,5.5,0,0,1-7.82,0,5.63,5.63,0,0,1,0-7.9L96.23,48,86.78,38.4a5.56,5.56,0,0,1,.06-7.84,5.47,5.47,0,0,1,7.79,0l9.4,9.52,9.4-9.54Z"/></svg>